<svg aria-hidden="true" style="position: absolute; width: 0; height: 0; overflow: hidden;" version="1.1" xmlns="http://www.w3.org/2000/svg" xmlns:xlink="http://www.w3.org/1999/xlink">
<defs>
<symbol id="icon-compass2" viewBox="0 0 32 32">
<path d="M16 0c-8.837 0-16 7.163-16 16s7.163 16 16 16 16-7.163 16-16-7.163-16-16-16zM3 16c0-7.18 5.82-13 13-13 3.424 0 6.538 1.325 8.86 3.488l-12.86 5.512-5.512 12.86c-2.164-2.322-3.488-5.436-3.488-8.86zM18.286 18.286l-8.003 3.43 3.43-8.003 4.573 4.573zM16 29c-3.424 0-6.539-1.325-8.86-3.488l12.86-5.512 5.512-12.86c2.164 2.322 3.488 5.436 3.488 8.86 0 7.18-5.82 13-13 13z"></path>
</symbol>
<symbol id="icon-map2" viewBox="0 0 32 32">
<path d="M21 6l-10-4-11 4v24l11-4 10 4 11-4v-24l-11 4zM12 4.554l8 3.2v19.692l-8-3.2v-19.692zM2 7.401l8-2.909v19.744l-8 2.909v-19.744zM30 24.599l-8 2.909v-19.744l8-2.909v19.744z"></path>
</symbol>
<symbol id="icon-clock" viewBox="0 0 32 32">
<path d="M20.586 23.414l-6.586-6.586v-8.828h4v7.172l5.414 5.414zM16 0c-8.837 0-16 7.163-16 16s7.163 16 16 16 16-7.163 16-16-7.163-16-16-16zM16 28c-6.627 0-12-5.373-12-12s5.373-12 12-12c6.627 0 12 5.373 12 12s-5.373 12-12 12z"></path>
</symbol>
</defs>
</svg>
